<?xml version="1.0" encoding="UTF-8" standalone="no"?>
<!-- Created with Inkscape (http://www.inkscape.org/) -->

<svg
   width="118.66907mm"
   height="114.50524mm"
   viewBox="0 0 118.66907 114.50524"
   version="1.1"
   id="svg5"
   inkscape:version="1.2.2 (732a01da63, 2022-12-09)"
   sodipodi:docname="profile_icon.svg"
   inkscape:export-filename="profile_icon.png"
   inkscape:export-xdpi="96"
   inkscape:export-ydpi="96"
   xmlns:inkscape="http://www.inkscape.org/namespaces/inkscape"
   xmlns:sodipodi="http://sodipodi.sourceforge.net/DTD/sodipodi-0.dtd"
   xmlns="http://www.w3.org/2000/svg"
   xmlns:svg="http://www.w3.org/2000/svg">
  <sodipodi:namedview
     id="namedview7"
     pagecolor="#ffffff"
     bordercolor="#000000"
     borderopacity="0.25"
     inkscape:showpageshadow="2"
     inkscape:pageopacity="0.0"
     inkscape:pagecheckerboard="false"
     inkscape:deskcolor="#d1d1d1"
     inkscape:document-units="mm"
     showgrid="false"
     showguides="true"
     inkscape:zoom="0.70710678"
     inkscape:cx="-132.22897"
     inkscape:cy="323.1478"
     inkscape:window-width="1920"
     inkscape:window-height="991"
     inkscape:window-x="-9"
     inkscape:window-y="182"
     inkscape:window-maximized="1"
     inkscape:current-layer="layer2" />
  <defs
     id="defs2" />
  <g
     inkscape:label="Layer 1"
     inkscape:groupmode="layer"
     id="layer1"
     transform="translate(-47.666138,-77.510281)">
    <a
       id="a1270">
      <path
         sodipodi:type="star"
         style="fill:#000000;fill-opacity:0;stroke:#000000;stroke-width:3.96139;stroke-dasharray:none;stroke-opacity:1"
         id="path1041"
         inkscape:flatsided="true"
         sodipodi:sides="5"
         sodipodi:cx="71.664185"
         sodipodi:cy="65.384331"
         sodipodi:r1="59.777119"
         sodipodi:r2="48.493496"
         sodipodi:arg1="0.94336306"
         sodipodi:arg2="1.5716816"
         inkscape:rounded="0"
         inkscape:randomized="0"
         d="M 106.75747,113.77612 36.485278,113.71391 14.829141,46.861864 71.717103,5.6072355 128.53193,46.962521 Z"
         inkscape:transform-center-x="0.80824713"
         inkscape:transform-center-y="-5.035599"
         transform="matrix(1.0026139,0,0,1.0169283,35.132097,74.297844)"
         sodipodi:insensitive="true" />
    </a>
  </g>
  <g
     inkscape:groupmode="layer"
     id="layer2"
     inkscape:label="Layer 2"
     transform="matrix(0.99766251,0,0,0.99186928,-47.457364,-74.632121)">
    <a
       id="a2112">
      <path
         sodipodi:type="star"
         style="fill:#000000;stroke-width:0.264583"
         id="path1234"
         inkscape:flatsided="true"
         sodipodi:sides="3"
         sodipodi:cx="45.067165"
         sodipodi:cy="35.093285"
         sodipodi:r1="45.195667"
         sodipodi:r2="22.597834"
         sodipodi:arg1="0.80273747"
         sodipodi:arg2="1.849935"
         inkscape:rounded="0.05"
         inkscape:randomized="0"
         d="M 76.46642,67.600748 C 73.651191,70.320003 2.1625788,49.829792 1.2152492,46.032105 0.26791956,42.234417 53.757269,-9.431431 57.519827,-8.3529989 61.282386,-7.2745667 79.281648,64.881493 76.46642,67.600748 Z"
         inkscape:transform-center-y="6.9797025"
         transform="matrix(0.48820019,0.4350397,-0.45072034,0.46786905,100.19846,104.60573)"
         inkscape:transform-center-x="0.33866958" />
      <path
         sodipodi:type="star"
         style="fill:#ffffff;stroke-width:0.264583"
         id="path1341"
         inkscape:flatsided="true"
         sodipodi:sides="4"
         sodipodi:cx="24.328411"
         sodipodi:cy="219.45828"
         sodipodi:r1="9.4882612"
         sodipodi:r2="12.390152"
         sodipodi:arg1="1.4827571"
         sodipodi:arg2="2.2681552"
         inkscape:rounded="0.1"
         inkscape:randomized="0"
         d="m 25.162672,228.9098 c -1.336646,0.11798 -10.167792,-7.28061 -10.285775,-8.61726 -0.117982,-1.33664 7.280608,-10.16779 8.617254,-10.28577 1.336645,-0.11798 10.167792,7.28061 10.285774,8.61725 0.117982,1.33665 -7.280608,10.16779 -8.617253,10.28578 z"
         transform="matrix(0.27026756,-0.13414526,0.18573402,0.64528631,48.163951,-0.34988675)" />
      <path
         sodipodi:type="star"
         style="fill:#ffffff;stroke-width:0.264583"
         id="path1345"
         inkscape:flatsided="true"
         sodipodi:sides="4"
         sodipodi:cx="24.328411"
         sodipodi:cy="219.45828"
         sodipodi:r1="9.4882612"
         sodipodi:r2="12.390152"
         sodipodi:arg1="1.4827571"
         sodipodi:arg2="2.2681552"
         inkscape:rounded="0.1"
         inkscape:randomized="0"
         d="m 25.162672,228.9098 c -1.336646,0.11798 -10.167792,-7.28061 -10.285775,-8.61726 -0.117982,-1.33664 7.280608,-10.16779 8.617254,-10.28577 1.336645,-0.11798 10.167792,7.28061 10.285774,8.61725 0.117982,1.33665 -7.280608,10.16779 -8.617253,10.28578 z"
         transform="matrix(-0.27026756,-0.13414526,-0.18573402,0.64528631,162.83605,-0.34988648)" />
      <path
         sodipodi:type="star"
         style="fill:#ffffff;stroke-width:0.264583"
         id="path1351"
         inkscape:flatsided="true"
         sodipodi:sides="4"
         sodipodi:cx="24.328411"
         sodipodi:cy="219.45828"
         sodipodi:r1="4.7942581"
         sodipodi:r2="12.390152"
         sodipodi:arg1="1.5457654"
         sodipodi:arg2="2.3311635"
         inkscape:rounded="0.1"
         inkscape:randomized="0"
         d="m 24.448403,224.25104 c -0.677798,0.017 -4.895779,-3.99497 -4.912748,-4.67277 -0.01697,-0.67779 3.994966,-4.89577 4.672764,-4.91274 0.677798,-0.017 4.895779,3.99496 4.912748,4.67276 0.01697,0.6778 -3.994966,4.89578 -4.672764,4.91275 z"
         transform="matrix(-0.25889723,-0.13064741,-0.17792007,0.62846043,166.59459,-0.74240223)" />
      <path
         sodipodi:type="star"
         style="fill:#ffffff;stroke-width:0.264583"
         id="path1353"
         inkscape:flatsided="true"
         sodipodi:sides="4"
         sodipodi:cx="24.328411"
         sodipodi:cy="219.45828"
         sodipodi:r1="4.7942581"
         sodipodi:r2="12.390152"
         sodipodi:arg1="1.5457654"
         sodipodi:arg2="2.3311635"
         inkscape:rounded="0.1"
         inkscape:randomized="0"
         d="m 24.448403,224.25104 c -0.677798,0.017 -4.895779,-3.99497 -4.912748,-4.67277 -0.01697,-0.67779 3.994966,-4.89577 4.672764,-4.91274 0.677798,-0.017 4.895779,3.99496 4.912748,4.67276 0.01697,0.6778 -3.994966,4.89578 -4.672764,4.91275 z"
         transform="matrix(0.25889723,-0.13064741,0.17792007,0.62846043,44.40541,-0.74240266)" />
    </a>
    <a
       id="a1232"
       transform="matrix(0.99720588,0,0,0.98985448,2.8308895,0.16620325)">
      <path
         sodipodi:type="star"
         style="fill:#000000;stroke-width:0.264583"
         id="path1221"
         inkscape:flatsided="true"
         sodipodi:sides="3"
         sodipodi:cx="114.88433"
         sodipodi:cy="111.55969"
         sodipodi:r1="12.737708"
         sodipodi:r2="5.2045197"
         sodipodi:arg1="0.51554901"
         sodipodi:arg2="1.5627465"
         inkscape:rounded="0.05"
         inkscape:randomized="0"
         d="m 125.96642,117.83954 c -0.54385,0.95974 -21.50241,1.12845 -22.06164,0.1776 -0.55923,-0.95086 9.77393,-19.185863 10.87702,-19.194743 1.10308,-0.0089 11.72847,18.057413 11.18462,19.017143 z"
         inkscape:transform-center-x="-0.37906344"
         inkscape:transform-center-y="-2.2372995"
         transform="matrix(1.0001707,-0.02095458,0.02121,0.98812576,1.0437312,13.695289)" />
      <path
         sodipodi:type="star"
         style="fill:#ffffff;stroke-width:0.264583"
         id="path1254"
         inkscape:flatsided="true"
         sodipodi:sides="3"
         sodipodi:cx="90.873131"
         sodipodi:cy="121.16418"
         sodipodi:r1="6.7813358"
         sodipodi:r2="7.3324399"
         sodipodi:arg1="0.51238942"
         sodipodi:arg2="1.5595869"
         inkscape:rounded="0.05"
         inkscape:randomized="0"
         d="m 96.783577,124.4888 c -0.287921,0.51186 -11.445557,0.63694 -11.74488,0.13166 -0.299323,-0.50528 5.171177,-10.23061 5.758421,-10.23719 0.587244,-0.007 6.27438,9.59367 5.986459,10.10553 z"
         inkscape:transform-center-x="2.6537732"
         inkscape:transform-center-y="-1.627461"
         transform="matrix(1.1099667,0,0,1.1842106,17.591881,-20.958469)" />
      <path
         sodipodi:type="star"
         style="display:inline;fill:#000000;stroke-width:0.264583"
         id="path1217"
         inkscape:flatsided="true"
         sodipodi:sides="3"
         sodipodi:cx="86.0709"
         sodipodi:cy="111.92909"
         sodipodi:r1="12.737708"
         sodipodi:r2="5.2045197"
         sodipodi:arg1="0.51554901"
         sodipodi:arg2="1.5627465"
         inkscape:rounded="0.05"
         inkscape:randomized="0"
         d="m 97.152989,118.20894 c -0.543851,0.95974 -21.502412,1.12845 -22.061643,0.1776 -0.559231,-0.95086 9.773937,-19.185863 10.87702,-19.194743 1.103082,-0.0089 11.728474,18.057413 11.184623,19.017143 z"
         inkscape:transform-center-x="-0.22933729"
         inkscape:transform-center-y="-2.4011207"
         transform="translate(2.2939883,9.7472426)"
         inkscape:label="path1217" />
      <path
         sodipodi:type="star"
         style="fill:#ffffff;stroke-width:0.264583"
         id="path1277"
         inkscape:flatsided="true"
         sodipodi:sides="3"
         sodipodi:cx="90.873131"
         sodipodi:cy="121.16418"
         sodipodi:r1="6.7813358"
         sodipodi:r2="7.3324399"
         sodipodi:arg1="0.51238942"
         sodipodi:arg2="1.5595869"
         inkscape:rounded="0.05"
         inkscape:randomized="0"
         d="m 96.783577,124.4888 c -0.287921,0.51186 -11.445557,0.63694 -11.74488,0.13166 -0.299323,-0.50528 5.171177,-10.23061 5.758421,-10.23719 0.587244,-0.007 6.27438,9.59367 5.986459,10.10553 z"
         inkscape:transform-center-x="2.6538055"
         inkscape:transform-center-y="-1.627388"
         transform="matrix(1.1099666,0,0,1.1842107,-12.492191,-20.95846)" />
    </a>
  </g>
</svg>
